PathFileType   4   (X/Y/Z)
DataRate	CameraRate	NumFrames	NumMarkers	Units	OrigDataRate	OrigDataStartFrame	OrigNumFrames
120.0	120.0	7	37	mm	120.0	70	186
Frame#	Time	midhip	hip_r	hip_l	knee_r	knee_l	ankle_r	ankle_l	midasis	asis_r	asis_l	psis_r	psis_l	epicondLat_r	epicondLat_l	epicondMed_r	epicondMed_l	malleolusLat_r	malleolusLat_l	malleolusMedv_r	malleolusMedv_l	neck	subclavicle_r	subclavicle_l	sternalnotch	xyphoidprocess	thighwand_r	thighwand_l	upperleg1_r	upperleg1_l	upperleg2_r	upperleg2_l	shankwand_r	shankwand_l	lowerleg1_r	lowerleg1_l	toe_r	toe_l
 	 	X1	Y1	Z1	X2	Y2	Z2	X3	Y3	Z3	X4	Y4	Z4	X5	Y5	Z5	X6	Y6	Z6	X7	Y7	Z7	X8	Y8	Z8	X9	Y9	Z9	X10	Y10	Z10	X11	Y11	Z11	X12	Y12	Z12	X13	Y13	Z13	X14	Y14	Z14	X15	Y15	Z15	X16	Y16	Z16	X17	Y17	Z17	X18	Y18	Z18	X19	Y19	Z19	X20	Y20	Z20	X21	Y21	Z21	X22	Y22	Z22	X23	Y23	Z23	X24	Y24	Z24	X25	Y25	Z25	X26	Y26	Z26	X27	Y27	Z27	X28	Y28	Z28	X29	Y29	Z29	X30	Y30	Z30	X31	Y31	Z31	X32	Y32	Z32	X33	Y33	Z33	X34	Y34	Z34	X35	Y35	Z35	X36	Y36	Z36	X37	Y37	Z37

	70	1.00000	1664.767	875.087	-293.604	1661.013	849.797	-227.726	1653.864	857.329	-377.797	1819.712	466.416	-201.966	1567.243	454.548	-343.596	1952.448	86.279	-211.867	1436.449	78.984	-308.029	1749.211	934.766	-303.058	1754.938	928.732	-182.850	1743.484	940.799	-423.266	1566.261	983.715	-253.688	1568.853	987.586	-338.246	1823.745	471.989	-143.872	1573.336	448.368	-400.943	1788.947	447.643	-252.935	1542.681	450.722	-294.256	1940.034	80.963	-174.215	1422.030	80.578	-344.230	1958.826	101.593	-239.428	1442.328	94.890	-281.657	1576.990	1407.119	-279.482	1699.090	1318.344	-233.598	1703.146	1320.809	-337.674	1684.972	1329.470	-283.282	1750.492	1158.421	-296.370	1826.201	575.173	-73.948	1727.866	500.192	-345.782	1811.334	638.954	-140.229	1676.122	568.736	-393.793	1838.227	556.424	-162.826	1632.910	491.226	-386.721	1912.137	211.911	-83.047	1495.226	193.346	-437.936	1918.047	178.150	-156.271	1461.735	170.960	-367.059	2078.859	44.468	-204.066	1551.056	39.091	-324.009
	71	1.00833	1670.180	874.851	-292.193	1666.388	849.620	-226.763	1658.954	857.187	-376.817	1824.788	466.008	-201.867	1570.367	454.775	-343.083	1952.250	84.150	-211.600	1436.846	79.903	-308.233	1754.404	934.651	-302.237	1760.361	928.587	-182.007	1748.447	940.714	-422.468	1571.520	983.494	-252.527	1574.157	987.340	-337.071	1828.557	471.337	-143.732	1576.325	448.655	-400.450	1793.530	446.831	-252.365	1545.508	451.547	-294.295	1940.075	79.123	-173.831	1422.426	81.675	-344.426	1957.541	98.970	-239.366	1443.033	95.638	-282.117	1581.548	1406.824	-278.179	1703.354	1317.950	-232.602	1708.109	1321.060	-336.834	1689.643	1329.315	-282.199	1755.314	1158.458	-296.105	1830.864	573.851	-73.442	1731.230	499.700	-345.495	1816.296	638.036	-139.135	1679.974	568.672	-393.296	1843.078	555.012	-161.971	1636.187	491.722	-386.571	1914.701	210.736	-82.909	1496.446	194.283	-437.884	1918.995	176.519	-156.668	1463.174	172.162	-367.314	2079.379	43.461	-204.173	1551.242	39.158	-323.869
	72	1.01667	1675.794	874.917	-290.980	1671.793	849.570	-225.745	1664.105	857.098	-375.789	1829.861	465.727	-201.833	1573.570	455.083	-342.551	1951.826	82.079	-211.317	1437.295	80.961	-308.436	1759.655	934.610	-301.389	1765.816	928.578	-181.149	1753.494	940.643	-421.628	1576.846	983.393	-251.372	1579.474	987.208	-335.931	1833.441	470.825	-143.666	1579.403	449.024	-399.938	1797.875	446.529	-253.045	1548.445	451.472	-294.045	1939.954	77.368	-173.411	1422.889	82.909	-344.626	1956.035	96.918	-239.136	1443.760	96.656	-282.380	1586.365	1406.649	-277.105	1708.637	1318.112	-231.614	1712.898	1321.696	-335.939	1694.375	1329.278	-281.108	1760.965	1159.116	-296.094	1835.695	572.705	-73.038	1734.661	499.277	-345.164	1821.693	636.922	-138.546	1683.395	568.565	-392.639	1848.050	553.772	-161.963	1639.116	491.590	-386.242	1917.331	209.668	-82.793	1497.773	195.327	-437.825	1919.395	175.034	-156.543	1464.241	173.144	-367.546	2079.707	42.755	-204.130	1551.447	39.235	-323.755
	73	1.02500	1681.266	875.074	-290.110	1677.205	849.652	-224.685	1669.301	857.057	-374.724	1834.851	465.591	-201.840	1576.856	455.459	-341.991	1951.313	80.147	-211.051	1437.830	82.152	-308.630	1764.952	934.638	-300.523	1771.286	928.704	-180.291	1758.618	940.572	-420.755	1582.217	983.424	-250.240	1584.777	987.195	-334.846	1838.337	470.482	-143.649	1582.584	449.462	-399.395	1802.544	446.420	-253.972	1552.801	450.791	-292.715	1939.808	75.761	-172.993	1423.445	84.275	-344.818	1955.138	94.872	-238.836	1444.394	97.602	-282.425	1591.225	1406.598	-275.862	1713.725	1318.297	-230.617	1717.383	1321.626	-334.747	1699.133	1329.337	-280.015	1765.787	1159.177	-294.899	1840.673	571.801	-72.713	1738.176	498.928	-344.755	1827.092	635.802	-138.070	1686.333	568.745	-392.297	1853.126	552.867	-162.110	1642.592	491.381	-385.518	1920.087	208.731	-82.709	1499.201	196.476	-437.746	1920.075	173.581	-155.958	1465.225	174.363	-367.438	2079.928	42.258	-204.015	1551.661	39.319	-323.688
	74	1.03333	1686.419	875.048	-289.096	1682.614	849.861	-223.601	1674.550	857.065	-373.641	1839.703	465.604	-201.856	1580.232	455.895	-341.386	1950.827	78.426	-210.833	1438.467	83.465	-308.809	1770.293	934.730	-299.648	1776.754	928.958	-179.436	1763.831	940.502	-419.861	1587.608	983.594	-249.148	1590.056	987.300	-333.839	1843.197	470.327	-143.652	1585.879	449.951	-398.804	1807.262	446.506	-254.445	1556.599	451.939	-290.829	1939.749	74.360	-172.614	1424.103	85.768	-344.995	1954.671	93.016	-238.518	1444.891	98.985	-282.388	1595.793	1406.718	-274.411	1718.383	1318.814	-229.171	1722.087	1321.050	-333.674	1703.932	1329.460	-278.891	1770.421	1159.012	-291.927	1845.768	571.193	-72.437	1741.795	498.651	-344.241	1832.604	635.244	-137.765	1689.864	568.960	-392.093	1858.251	552.401	-162.104	1645.803	491.541	-384.494	1922.998	207.935	-82.674	1500.721	197.725	-437.640	1921.428	172.611	-155.293	1466.017	175.893	-367.218	2080.110	41.884	-203.888	1551.875	39.408	-323.677
	75	1.04167	1691.882	875.462	-288.160	1688.022	850.184	-222.518	1679.870	857.125	-372.565	1844.385	465.757	-201.855	1583.702	456.380	-340.724	1950.453	76.973	-210.692	1439.198	84.888	-308.975	1775.683	934.889	-298.768	1782.212	929.330	-178.581	1769.153	940.448	-418.955	1593.001	983.897	-248.114	1595.331	987.504	-332.922	1847.994	470.354	-143.648	1589.294	450.476	-398.151	1810.843	446.905	-254.222	1559.820	453.479	-289.003	1939.841	73.205	-172.310	1424.855	87.375	-345.157	1954.453	91.716	-238.354	1445.288	100.752	-282.432	1600.255	1406.720	-273.103	1723.429	1319.373	-227.875	1726.743	1321.175	-332.707	1708.774	1329.636	-277.729	1775.804	1159.488	-290.288	1850.957	570.908	-72.189	1745.530	498.437	-343.609	1838.542	635.233	-137.611	1693.775	568.948	-391.249	1863.109	552.294	-161.879	1648.854	491.910	-383.254	1926.040	207.279	-82.708	1502.326	199.059	-437.500	1923.086	171.834	-155.076	1467.245	177.297	-366.994	2080.297	41.568	-203.788	1552.080	39.503	-323.718
	76	1.05000	1697.281	875.949	-287.297	1693.430	850.614	-221.442	1685.271	857.235	-371.504	1848.885	466.020	-201.817	1587.276	456.901	-340.001	1950.226	75.809	-210.642	1440.008	86.402	-309.137	1781.121	935.117	-297.880	1787.654	929.816	-177.725	1774.588	940.419	-418.035	1598.390	984.320	-247.145	1600.637	987.782	-332.092	1852.717	470.539	-143.618	1592.841	451.020	-397.433	1815.929	447.310	-253.815	1563.797	453.730	-287.749	1940.093	72.306	-172.106	1425.691	89.079	-345.315	1954.380	90.575	-238.532	1445.926	102.289	-282.619	1604.932	1406.748	-271.867	1728.395	1319.501	-226.783	1731.261	1321.308	-331.562	1713.634	1329.884	-276.553	1780.665	1159.670	-289.391	1856.232	570.933	-71.963	1749.396	498.278	-342.856	1843.896	635.368	-137.390	1697.640	568.932	-389.905	1868.195	552.993	-161.424	1652.801	492.551	-382.156	1929.138	206.752	-82.819	1504.020	200.463	-437.319	1924.867	170.532	-155.512	1469.011	178.694	-366.619	2080.505	41.272	-203.728	1552.271	39.608	-323.794
